<svg xmlns="http://www.w3.org/2000/svg" version="1.1" xmlns:xlink="http://www.w3.org/1999/xlink" xmlns:svgjs="http://svgjs.dev/svgjs" width="1440" height="560" preserveAspectRatio="none" viewBox="0 0 1440 560"><g mask="url(&quot;#SvgjsMask1132&quot;)" fill="none"><g mask="url(&quot;#SvgjsMask1133&quot;)"><path d="M1183 273L1157 299L1131 299L1105 299L1079 299M1469 273L1443 273L1417 273L1391 273L1365 273L1339 273L1313 273L1287 273L1261 273L1235 273L1209 273L1183 273L1157 273L1131 273" stroke="#3a7cc3" stroke-width="4.33"></path><path d="M1124.5 273 a6.5 6.5 0 1 0 13 0 a6.5 6.5 0 1 0 -13 0zM1072.5 299 a6.5 6.5 0 1 0 13 0 a6.5 6.5 0 1 0 -13 0z" fill="#3a7cc3"></path><path d="M1313 299L1287 325L1261 325L1235 325L1209 325M1469 299L1443 299L1417 299L1391 299L1365 299L1339 299L1313 299L1287 299L1261 299L1235 299L1209 299" stroke="#3a7cc3" stroke-width="4.33"></path><path d="M1202.5 299 a6.5 6.5 0 1 0 13 0 a6.5 6.5 0 1 0 -13 0zM1202.5 325 a6.5 6.5 0 1 0 13 0 a6.5 6.5 0 1 0 -13 0z" fill="#3a7cc3"></path><path d="M767 195L741 169L715 169L689 169L663 143M1001 221L975 247L949 247L923 247L897 247L871 247L845 247L819 247L793 247L767 247L741 247L715 247L689 273M871 221L845 195L819 195L793 195L767 169M793 221L767 221L741 221M897 221L871 195L845 169L819 169L793 169L767 143L741 117L715 117M1157 247L1131 247M975 221L949 195L923 195M741 195L715 195M1469 247L1443 247L1417 247L1391 247L1365 247L1339 247L1313 247L1287 247L1261 247L1235 247L1209 247L1183 247L1157 247L1131 221L1105 221L1079 221L1053 221L1027 221L1001 221L975 221L949 221L923 221L897 221L871 221L845 221L819 221L793 221L767 195L741 195L715 221L689 247L663 247" stroke="#3a7cc3" stroke-width="4.33"></path><path d="M656.5 247 a6.5 6.5 0 1 0 13 0 a6.5 6.5 0 1 0 -13 0zM656.5 143 a6.5 6.5 0 1 0 13 0 a6.5 6.5 0 1 0 -13 0zM682.5 273 a6.5 6.5 0 1 0 13 0 a6.5 6.5 0 1 0 -13 0zM760.5 169 a6.5 6.5 0 1 0 13 0 a6.5 6.5 0 1 0 -13 0zM734.5 221 a6.5 6.5 0 1 0 13 0 a6.5 6.5 0 1 0 -13 0zM708.5 117 a6.5 6.5 0 1 0 13 0 a6.5 6.5 0 1 0 -13 0zM1124.5 247 a6.5 6.5 0 1 0 13 0 a6.5 6.5 0 1 0 -13 0zM916.5 195 a6.5 6.5 0 1 0 13 0 a6.5 6.5 0 1 0 -13 0zM708.5 195 a6.5 6.5 0 1 0 13 0 a6.5 6.5 0 1 0 -13 0z" fill="#3a7cc3"></path><path d="M1469 325L1443 325L1417 325L1391 325L1365 325L1339 325" stroke="#3a7cc3" stroke-width="4.33"></path><path d="M1332.5 325 a6.5 6.5 0 1 0 13 0 a6.5 6.5 0 1 0 -13 0z" fill="#3a7cc3"></path><path d="M1365 221L1339 195M1209 221L1183 195L1157 195M1261 221L1235 195M1469 221L1443 221L1417 221L1391 221L1365 221L1339 221L1313 221L1287 221L1261 221L1235 221L1209 221L1183 221L1157 221" stroke="#3a7cc3" stroke-width="4.33"></path><path d="M1150.5 221 a6.5 6.5 0 1 0 13 0 a6.5 6.5 0 1 0 -13 0zM1332.5 195 a6.5 6.5 0 1 0 13 0 a6.5 6.5 0 1 0 -13 0zM1150.5 195 a6.5 6.5 0 1 0 13 0 a6.5 6.5 0 1 0 -13 0zM1228.5 195 a6.5 6.5 0 1 0 13 0 a6.5 6.5 0 1 0 -13 0z" fill="#3a7cc3"></path><path d="M1157 351L1131 351L1105 351M1183 351L1157 325M1261 351L1235 377M1469 351L1443 351L1417 351L1391 351L1365 351L1339 351L1313 351L1287 351L1261 351L1235 351L1209 351L1183 351L1157 351L1131 325L1105 325L1079 325L1053 325" stroke="#3a7cc3" stroke-width="4.33"></path><path d="M1046.5 325 a6.5 6.5 0 1 0 13 0 a6.5 6.5 0 1 0 -13 0zM1098.5 351 a6.5 6.5 0 1 0 13 0 a6.5 6.5 0 1 0 -13 0zM1150.5 325 a6.5 6.5 0 1 0 13 0 a6.5 6.5 0 1 0 -13 0zM1228.5 377 a6.5 6.5 0 1 0 13 0 a6.5 6.5 0 1 0 -13 0z" fill="#3a7cc3"></path><path d="M1469 195L1443 195L1417 195L1391 195" stroke="#3a7cc3" stroke-width="4.33"></path><path d="M1384.5 195 a6.5 6.5 0 1 0 13 0 a6.5 6.5 0 1 0 -13 0z" fill="#3a7cc3"></path><path d="M533 429L507 455M1287 377L1261 377M1209 377L1183 403M741 377L715 351L689 351L663 351L637 351L611 351L585 377L559 377L533 377L507 377L481 403M897 377L871 403L845 403L819 403L793 403L767 403L741 403M715 377L689 377L663 377L637 377L611 377M585 429L559 403L533 403L507 403M559 429L533 455L507 481L481 481M871 377L845 351L819 351M1469 377L1443 377L1417 377L1391 377L1365 377L1339 377L1313 377L1287 377L1261 403L1235 403L1209 377L1183 377L1157 377L1131 377L1105 377L1079 351L1053 351L1027 351L1001 351L975 377L949 377L923 377L897 377L871 377L845 377L819 377L793 377L767 377L741 377L715 377L689 403L663 403L637 403L611 403L585 429L559 429L533 429L507 429" stroke="#3a7cc3" stroke-width="4.33"></path><path d="M500.5 429 a6.5 6.5 0 1 0 13 0 a6.5 6.5 0 1 0 -13 0zM500.5 455 a6.5 6.5 0 1 0 13 0 a6.5 6.5 0 1 0 -13 0zM1254.5 377 a6.5 6.5 0 1 0 13 0 a6.5 6.5 0 1 0 -13 0zM1176.5 403 a6.5 6.5 0 1 0 13 0 a6.5 6.5 0 1 0 -13 0zM474.5 403 a6.5 6.5 0 1 0 13 0 a6.5 6.5 0 1 0 -13 0zM734.5 403 a6.5 6.5 0 1 0 13 0 a6.5 6.5 0 1 0 -13 0zM604.5 377 a6.5 6.5 0 1 0 13 0 a6.5 6.5 0 1 0 -13 0zM500.5 403 a6.5 6.5 0 1 0 13 0 a6.5 6.5 0 1 0 -13 0zM474.5 481 a6.5 6.5 0 1 0 13 0 a6.5 6.5 0 1 0 -13 0zM812.5 351 a6.5 6.5 0 1 0 13 0 a6.5 6.5 0 1 0 -13 0z" fill="#3a7cc3"></path><path d="M1339 169L1313 143L1287 143L1261 143M1417 169L1391 143L1365 143M1313 169L1287 195L1261 195M1469 169L1443 169L1417 169L1391 169L1365 169L1339 169L1313 169L1287 169L1261 169L1235 169L1209 169L1183 169L1157 169L1131 195L1105 195" stroke="#3a7cc3" stroke-width="4.33"></path><path d="M1098.5 195 a6.5 6.5 0 1 0 13 0 a6.5 6.5 0 1 0 -13 0zM1254.5 143 a6.5 6.5 0 1 0 13 0 a6.5 6.5 0 1 0 -13 0zM1358.5 143 a6.5 6.5 0 1 0 13 0 a6.5 6.5 0 1 0 -13 0zM1254.5 195 a6.5 6.5 0 1 0 13 0 a6.5 6.5 0 1 0 -13 0z" fill="#3a7cc3"></path><path d="M923 507L897 481M1027 481L1001 455L975 455L949 429L923 429L897 429L871 429M845 507L819 481L793 481L767 481L741 455M975 507L949 481L923 481L897 455L871 455L845 455M1079 429L1053 429M1313 403L1287 429L1261 455L1235 455M1391 403L1365 429L1339 429L1313 429L1287 455M1469 403L1443 403L1417 403L1391 403L1365 403L1339 403L1313 403L1287 403L1261 429L1235 429L1209 429L1183 429L1157 403L1131 403L1105 429L1079 429L1053 455L1027 481L1001 481L975 507L949 507L923 507L897 507L871 507L845 507L819 507L793 507L767 507L741 507L715 507" stroke="#3a7cc3" stroke-width="4.33"></path><path d="M708.5 507 a6.5 6.5 0 1 0 13 0 a6.5 6.5 0 1 0 -13 0zM890.5 481 a6.5 6.5 0 1 0 13 0 a6.5 6.5 0 1 0 -13 0zM864.5 429 a6.5 6.5 0 1 0 13 0 a6.5 6.5 0 1 0 -13 0zM734.5 455 a6.5 6.5 0 1 0 13 0 a6.5 6.5 0 1 0 -13 0zM838.5 455 a6.5 6.5 0 1 0 13 0 a6.5 6.5 0 1 0 -13 0zM1046.5 429 a6.5 6.5 0 1 0 13 0 a6.5 6.5 0 1 0 -13 0zM1228.5 455 a6.5 6.5 0 1 0 13 0 a6.5 6.5 0 1 0 -13 0zM1280.5 455 a6.5 6.5 0 1 0 13 0 a6.5 6.5 0 1 0 -13 0z" fill="#3a7cc3"></path><path d="M1287 91L1261 65L1235 65L1209 65M1313 91L1287 65M1417 117L1391 117L1365 117L1339 117M1391 91L1365 65L1339 65L1313 65M1469 143L1443 143L1417 117L1391 91L1365 91L1339 91L1313 91L1287 91L1261 91L1235 91L1209 91L1183 91L1157 91L1131 91L1105 91L1079 91L1053 91L1027 91" stroke="#3a7cc3" stroke-width="4.33"></path><path d="M1020.5 91 a6.5 6.5 0 1 0 13 0 a6.5 6.5 0 1 0 -13 0zM1202.5 65 a6.5 6.5 0 1 0 13 0 a6.5 6.5 0 1 0 -13 0zM1280.5 65 a6.5 6.5 0 1 0 13 0 a6.5 6.5 0 1 0 -13 0zM1332.5 117 a6.5 6.5 0 1 0 13 0 a6.5 6.5 0 1 0 -13 0zM1306.5 65 a6.5 6.5 0 1 0 13 0 a6.5 6.5 0 1 0 -13 0z" fill="#3a7cc3"></path></g></g><defs><mask id="SvgjsMask1132"><rect width="1440" height="560" fill="#ffffff"></rect></mask><mask id="SvgjsMask1133"><rect width="1440" height="560" fill="white"></rect><path d="M1127.75 273 a3.25 3.25 0 1 0 6.5 0 a3.25 3.25 0 1 0 -6.5 0zM1075.75 299 a3.25 3.25 0 1 0 6.5 0 a3.25 3.25 0 1 0 -6.5 0z" fill="black"></path><path d="M1205.75 299 a3.25 3.25 0 1 0 6.5 0 a3.25 3.25 0 1 0 -6.5 0zM1205.75 325 a3.25 3.25 0 1 0 6.5 0 a3.25 3.25 0 1 0 -6.5 0z" fill="black"></path><path d="M659.75 247 a3.25 3.25 0 1 0 6.5 0 a3.25 3.25 0 1 0 -6.5 0zM659.75 143 a3.25 3.25 0 1 0 6.5 0 a3.25 3.25 0 1 0 -6.5 0zM685.75 273 a3.25 3.25 0 1 0 6.5 0 a3.25 3.25 0 1 0 -6.5 0zM763.75 169 a3.25 3.25 0 1 0 6.5 0 a3.25 3.25 0 1 0 -6.5 0zM737.75 221 a3.25 3.25 0 1 0 6.5 0 a3.25 3.25 0 1 0 -6.5 0zM711.75 117 a3.25 3.25 0 1 0 6.5 0 a3.25 3.25 0 1 0 -6.5 0zM1127.75 247 a3.25 3.25 0 1 0 6.5 0 a3.25 3.25 0 1 0 -6.5 0zM919.75 195 a3.25 3.25 0 1 0 6.5 0 a3.25 3.25 0 1 0 -6.5 0zM711.75 195 a3.25 3.25 0 1 0 6.5 0 a3.25 3.25 0 1 0 -6.5 0z" fill="black"></path><path d="M1335.75 325 a3.25 3.25 0 1 0 6.5 0 a3.25 3.25 0 1 0 -6.5 0z" fill="black"></path><path d="M1153.75 221 a3.25 3.25 0 1 0 6.5 0 a3.25 3.25 0 1 0 -6.5 0zM1335.75 195 a3.25 3.25 0 1 0 6.5 0 a3.25 3.25 0 1 0 -6.5 0zM1153.75 195 a3.25 3.25 0 1 0 6.5 0 a3.25 3.25 0 1 0 -6.5 0zM1231.75 195 a3.25 3.25 0 1 0 6.5 0 a3.25 3.25 0 1 0 -6.5 0z" fill="black"></path><path d="M1049.75 325 a3.25 3.25 0 1 0 6.5 0 a3.25 3.25 0 1 0 -6.5 0zM1101.75 351 a3.25 3.25 0 1 0 6.5 0 a3.25 3.25 0 1 0 -6.5 0zM1153.75 325 a3.25 3.25 0 1 0 6.5 0 a3.25 3.25 0 1 0 -6.5 0zM1231.75 377 a3.25 3.25 0 1 0 6.5 0 a3.25 3.25 0 1 0 -6.5 0z" fill="black"></path><path d="M1387.75 195 a3.25 3.25 0 1 0 6.5 0 a3.25 3.25 0 1 0 -6.5 0z" fill="black"></path><path d="M503.75 429 a3.25 3.25 0 1 0 6.5 0 a3.25 3.25 0 1 0 -6.5 0zM503.75 455 a3.25 3.25 0 1 0 6.5 0 a3.25 3.25 0 1 0 -6.5 0zM1257.75 377 a3.25 3.25 0 1 0 6.5 0 a3.25 3.25 0 1 0 -6.5 0zM1179.75 403 a3.25 3.25 0 1 0 6.5 0 a3.25 3.25 0 1 0 -6.5 0zM477.75 403 a3.25 3.25 0 1 0 6.5 0 a3.25 3.25 0 1 0 -6.5 0zM737.75 403 a3.25 3.25 0 1 0 6.5 0 a3.25 3.25 0 1 0 -6.5 0zM607.75 377 a3.25 3.25 0 1 0 6.5 0 a3.25 3.25 0 1 0 -6.5 0zM503.75 403 a3.25 3.25 0 1 0 6.5 0 a3.25 3.25 0 1 0 -6.5 0zM477.75 481 a3.25 3.25 0 1 0 6.5 0 a3.25 3.25 0 1 0 -6.5 0zM815.75 351 a3.25 3.25 0 1 0 6.5 0 a3.25 3.25 0 1 0 -6.5 0z" fill="black"></path><path d="M1101.75 195 a3.25 3.25 0 1 0 6.5 0 a3.25 3.25 0 1 0 -6.5 0zM1257.75 143 a3.25 3.25 0 1 0 6.5 0 a3.25 3.25 0 1 0 -6.5 0zM1361.75 143 a3.25 3.25 0 1 0 6.5 0 a3.25 3.25 0 1 0 -6.5 0zM1257.75 195 a3.25 3.25 0 1 0 6.5 0 a3.25 3.25 0 1 0 -6.5 0z" fill="black"></path><path d="M711.75 507 a3.25 3.25 0 1 0 6.5 0 a3.25 3.25 0 1 0 -6.5 0zM893.75 481 a3.25 3.25 0 1 0 6.5 0 a3.25 3.25 0 1 0 -6.5 0zM867.75 429 a3.25 3.25 0 1 0 6.5 0 a3.25 3.25 0 1 0 -6.5 0zM737.75 455 a3.25 3.25 0 1 0 6.5 0 a3.25 3.25 0 1 0 -6.5 0zM841.75 455 a3.25 3.25 0 1 0 6.5 0 a3.25 3.25 0 1 0 -6.5 0zM1049.75 429 a3.25 3.25 0 1 0 6.5 0 a3.25 3.25 0 1 0 -6.5 0zM1231.75 455 a3.25 3.25 0 1 0 6.5 0 a3.25 3.25 0 1 0 -6.5 0zM1283.75 455 a3.25 3.25 0 1 0 6.5 0 a3.25 3.25 0 1 0 -6.5 0z" fill="black"></path><path d="M1023.75 91 a3.25 3.25 0 1 0 6.5 0 a3.25 3.25 0 1 0 -6.5 0zM1205.75 65 a3.25 3.25 0 1 0 6.5 0 a3.25 3.25 0 1 0 -6.5 0zM1283.75 65 a3.25 3.25 0 1 0 6.5 0 a3.25 3.25 0 1 0 -6.5 0zM1335.75 117 a3.25 3.25 0 1 0 6.5 0 a3.25 3.25 0 1 0 -6.5 0zM1309.75 65 a3.25 3.25 0 1 0 6.5 0 a3.25 3.25 0 1 0 -6.5 0z" fill="black"></path></mask></defs></svg>